<svg xmlns="http://www.w3.org/2000/svg" viewBox="0 0 200 240" fill="none" stroke="#4cd2ff" stroke-width="1.5">
  <!-- Stylized face silhouette for hero visual -->
  <defs>
    <linearGradient id="faceGrad" x1="0" y1="0" x2="0" y2="1">
      <stop offset="0%" stop-color="#4cd2ff" stop-opacity="0.4"/>
      <stop offset="100%" stop-color="#8b5cf6" stop-opacity="0.1"/>
    </linearGradient>
  </defs>
  <path d="M100 20 C 60 20, 35 55, 35 100 C 35 135, 50 165, 65 185 C 70 192, 75 198, 78 210 C 80 220, 85 225, 100 225 C 115 225, 120 220, 122 210 C 125 198, 130 192, 135 185 C 150 165, 165 135, 165 100 C 165 55, 140 20, 100 20 Z"
        fill="url(#faceGrad)" opacity="0.6"/>
  <!-- Facial feature lines -->
  <circle cx="75" cy="95" r="3" fill="#4cd2ff" opacity="0.8"/>
  <circle cx="125" cy="95" r="3" fill="#4cd2ff" opacity="0.8"/>
  <path d="M80 140 Q 100 150, 120 140" stroke-width="1.5" opacity="0.6"/>
  <!-- Wireframe accent -->
  <path d="M50 70 L 75 60" stroke-width="0.5" opacity="0.4"/>
  <path d="M150 70 L 125 60" stroke-width="0.5" opacity="0.4"/>
  <path d="M40 130 L 60 120" stroke-width="0.5" opacity="0.4"/>
  <path d="M160 130 L 140 120" stroke-width="0.5" opacity="0.4"/>
</svg>
